<?xml version="1.0" encoding="utf-8"?>
<!-- Generator: Adobe Illustrator 24.0.2, SVG Export Plug-In . SVG Version: 6.00 Build 0)  -->
<svg version="1.1" id="Capa_1" xmlns="http://www.w3.org/2000/svg" xmlns:xlink="http://www.w3.org/1999/xlink" x="0px" y="0px"
	 viewBox="0 0 200 200" style="enable-background:new 0 0 200 200;" xml:space="preserve">
<style type="text/css">
	.st0{fill:#EBF3FA;}
	.st1{fill:#2B4957;}
	.st2{fill:#010202;}
	.st3{fill:url(#SVGID_1_);}
	.st4{fill:url(#SVGID_2_);}
	.st5{fill:url(#SVGID_3_);}
	.st6{fill:url(#SVGID_4_);}
	.st7{fill:url(#SVGID_5_);}
	.st8{fill:url(#SVGID_6_);}
	.st9{fill:url(#SVGID_7_);}
	.st10{fill:url(#SVGID_8_);}
	.st11{fill:url(#SVGID_9_);}
	.st12{fill:url(#SVGID_10_);}
	.st13{fill:#FFFFFF;}
	.st14{fill:#137179;}
	.st15{fill:#21AC90;}
	.st16{fill:#BED1B8;}
</style>
<g>
	<g>
		<path class="st0" d="M134.68,82.79h-2.55v74.65h2.55c9.9,0,17.92-6.8,17.92-15.19V97.97C152.6,89.59,144.58,82.79,134.68,82.79z"
			/>
	</g>
	<g>
		<path class="st1" d="M137.28,159.52H61.4c-1.16,0-2.1-0.93-2.1-2.09V82.79c0-1.15,0.94-2.09,2.1-2.09h75.88
			c9.61,0,17.42,7.75,17.42,17.27v44.27C154.71,151.77,146.89,159.52,137.28,159.52z M63.5,155.35h73.78
			c7.29,0,13.21-5.88,13.21-13.1V97.97c0-7.22-5.93-13.1-13.21-13.1H63.5V155.35z"/>
	</g>
	<g>
		<path class="st0" d="M106.39,82.79c0-4.59-3.76-8.32-8.39-8.32c-4.63,0-8.39,3.72-8.39,8.32H106.39z"/>
	</g>
	<g>
		<path class="st0" d="M103.12,52.47c4.23,4.19,11.08,4.19,15.3,0l-7.65-7.58L103.12,52.47z"/>
	</g>
	<g>
		<path class="st0" d="M127.46,61.42c-4.23,4.19-4.23,10.98,0,15.17l7.65-7.58L127.46,61.42z"/>
	</g>
	<g>
		<path class="st1" d="M121.21,84.87H72.54c-0.85,0-1.62-0.51-1.94-1.29c-0.33-0.78-0.15-1.68,0.46-2.27l38.23-37.9
			c0.82-0.82,2.15-0.81,2.98,0l24.33,24.12c0.39,0.39,0.62,0.92,0.62,1.48c0,0.55-0.22,1.08-0.62,1.48l-13.9,13.78
			C122.3,84.65,121.76,84.87,121.21,84.87z M77.62,80.7h42.71L132.13,69l-21.36-21.17L77.62,80.7z"/>
	</g>
	<g>
		<path class="st1" d="M151.86,149H61.4c-1.16,0-2.1-0.93-2.1-2.09V93.3c0-1.15,0.94-2.09,2.1-2.09h90.46c0.91,0,1.72,0.58,2,1.45
			c0.56,1.72,0.84,3.5,0.84,5.31v44.27c0,1.81-0.28,3.59-0.84,5.31C153.58,148.42,152.77,149,151.86,149z M63.5,144.83h86.73
			c0.17-0.85,0.26-1.71,0.26-2.58V97.97c0-0.87-0.09-1.73-0.26-2.58H63.5V144.83z"/>
	</g>
	<g>
		<path class="st1" d="M138.03,127.86c-4.31,0-7.82-3.48-7.82-7.75c0-4.27,3.51-7.75,7.82-7.75s7.82,3.48,7.82,7.75
			C145.85,124.38,142.35,127.86,138.03,127.86z M138.03,116.53c-1.99,0-3.61,1.6-3.61,3.58c0,1.97,1.62,3.58,3.61,3.58
			c1.99,0,3.61-1.6,3.61-3.58C141.64,118.14,140.02,116.53,138.03,116.53z"/>
	</g>
	<g>
		<path class="st1" d="M161.36,134.96h-25.88c-8.26,0-14.98-6.66-14.98-14.85s6.72-14.85,14.98-14.85h25.88
			c1.16,0,2.1,0.93,2.1,2.09v25.53C163.47,134.03,162.53,134.96,161.36,134.96z M135.48,109.43c-5.94,0-10.77,4.79-10.77,10.68
			c0,5.89,4.83,10.68,10.77,10.68h23.78v-21.36H135.48z"/>
	</g>
</g>
<g>
	<g>
		<path class="st0" d="M-787.81-4.46h-2.84v78.38h2.84c2.95,0,5.34-2.39,5.34-5.34V0.88C-782.47-2.07-784.86-4.46-787.81-4.46z"/>
	</g>
	<g>
		
			<ellipse transform="matrix(0.2298 -0.9732 0.9732 0.2298 -683.1807 -733.6168)" class="st0" cx="-805.07" cy="64.81" rx="4.61" ry="4.61"/>
	</g>
	<g>
		<rect x="-790.65" y="7.19" class="st0" width="8.18" height="48.66"/>
	</g>
	<g>
		<path class="st1" d="M-787.81,75.4h-34.53c-3.76,0-6.82-3.06-6.82-6.82V0.88c0-3.76,3.06-6.82,6.82-6.82h34.53
			c3.76,0,6.82,3.06,6.82,6.82v67.7C-780.99,72.34-784.05,75.4-787.81,75.4z M-822.34-2.98c-2.13,0-3.86,1.73-3.86,3.86v67.7
			c0,2.13,1.73,3.86,3.86,3.86h34.53c2.13,0,3.86-1.73,3.86-3.86V0.88c0-2.13-1.73-3.86-3.86-3.86H-822.34z"/>
	</g>
	<g>
		<path class="st1" d="M-782.47,57.33h-45.21c-0.82,0-1.48-0.66-1.48-1.48V7.19c0-0.82,0.66-1.48,1.48-1.48h45.21
			c0.82,0,1.48,0.66,1.48,1.48v48.66C-780.99,56.67-781.65,57.33-782.47,57.33z M-826.19,54.36h42.24V8.67h-42.24V54.36z"/>
	</g>
	<g>
		<path class="st1" d="M-798.75,3.07h-12.64c-0.82,0-1.48-0.66-1.48-1.48s0.66-1.48,1.48-1.48h12.64c0.82,0,1.48,0.66,1.48,1.48
			S-797.93,3.07-798.75,3.07z"/>
	</g>
	<g>
		<path class="st0" d="M-662.09,123.75h13.44c5.31,0,9.61-4.3,9.61-9.61v-5.21h-23.06V123.75z"/>
	</g>
	<g>
		<path class="st0" d="M-659.64,32.73h-2.45v76.2h11.33V41.6C-650.77,36.7-654.74,32.73-659.64,32.73z"/>
	</g>
	<g>
		<rect x="-669.64" y="41.62" class="st0" width="7.54" height="59.53"/>
	</g>
	<g>
		<path class="st0" d="M-722.02,108.93L-722.02,108.93c0,4.09,3.32,7.41,7.41,7.41h7.06c4.09,0,7.41-3.32,7.41-7.41l0,0H-722.02z"/>
	</g>
	<g>
		<path class="st1" d="M-650.77,110.93h-120.61c-1.11,0-2-0.9-2-2V41.6c0-6,4.88-10.88,10.88-10.88h102.86
			c6,0,10.88,4.88,10.88,10.88v67.32C-648.77,110.03-649.66,110.93-650.77,110.93z M-769.37,106.92h116.6V41.6
			c0-3.79-3.08-6.87-6.87-6.87H-762.5c-3.79,0-6.87,3.08-6.87,6.87V106.92z"/>
	</g>
	<g>
		<path class="st1" d="M-662.09,103.16h-97.95c-1.11,0-2-0.9-2-2V41.62c0-1.11,0.9-2,2-2h97.95c1.11,0,2,0.9,2,2v59.53
			C-660.09,102.26-660.99,103.16-662.09,103.16z M-758.05,99.15h93.95V43.62h-93.95V99.15z"/>
	</g>
	<g>
		<path class="st1" d="M-648.65,125.75h-124.84c-6.4,0-11.61-5.21-11.61-11.61v-5.21c0-1.11,0.9-2,2-2h144.07c1.11,0,2,0.9,2,2v5.21
			C-637.04,120.54-642.25,125.75-648.65,125.75z M-781.1,110.93v3.21c0,4.2,3.41,7.61,7.61,7.61h124.84c4.2,0,7.61-3.41,7.61-7.61
			v-3.21H-781.1z"/>
	</g>
</g>
<g>
	<g>
		<polygon class="st0" points="-766.36,476.01 -786.37,476.01 -786.37,548.38 -766.36,548.38 -766.36,476.01 		"/>
	</g>
	<g>
		<path class="st1" d="M-766.36,553.18h-72.36c-2.65,0-4.8-2.15-4.8-4.8v-72.36c0-2.65,2.15-4.8,4.8-4.8h72.36
			c2.65,0,4.8,2.15,4.8,4.8v72.36C-761.56,551.03-763.71,553.18-766.36,553.18z M-833.92,543.58h62.76v-62.76h-62.76V543.58z"/>
	</g>
	<g>
		<path class="st1" d="M-779.86,480.81c-2.65,0-4.8-2.15-4.8-4.8v-19.98c0-9.86-8.02-17.88-17.88-17.88
			c-9.86,0-17.88,8.02-17.88,17.88v19.98c0,2.65-2.15,4.8-4.8,4.8c-2.65,0-4.8-2.15-4.8-4.8v-19.98c0-15.15,12.33-27.48,27.48-27.48
			c15.15,0,27.48,12.33,27.48,27.48v19.98C-775.06,478.66-777.21,480.81-779.86,480.81z"/>
	</g>
	<g>
		<g>
			<path class="st1" d="M-714.42,411.35c1.54,0,2.76,1.22,2.76,2.76v1.41c3.79,0.45,7,1.67,9.96,3.53c1.03,0.58,1.93,1.54,1.93,3.08
				c0,1.99-1.61,3.53-3.6,3.53c-0.64,0-1.29-0.19-1.93-0.58c-2.25-1.35-4.43-2.31-6.62-2.83v12.34c9.77,2.44,13.94,6.36,13.94,13.24
				c0,7.07-5.53,11.76-13.69,12.53v3.86c0,1.54-1.22,2.76-2.76,2.76c-1.54,0-2.83-1.22-2.83-2.76v-3.98
				c-4.82-0.51-9.25-2.25-13.17-5.01c-1.09-0.71-1.74-1.74-1.74-3.08c0-1.99,1.54-3.53,3.53-3.53c0.77,0,1.54,0.26,2.12,0.71
				c3.02,2.18,5.98,3.66,9.51,4.31v-12.66c-9.38-2.44-13.75-5.98-13.75-13.24c0-6.88,5.46-11.63,13.5-12.27v-1.35
				C-717.24,412.57-715.96,411.35-714.42,411.35z M-716.99,433.26v-11.37c-4.11,0.39-6.17,2.57-6.17,5.4
				C-723.15,429.98-721.93,431.65-716.99,433.26z M-711.91,442.19v11.7c4.11-0.45,6.36-2.51,6.36-5.59
				C-705.55,445.47-706.96,443.73-711.91,442.19z"/>
		</g>
		<g>
			<path class="st1" d="M-715.77,490.25c-27.9,0-50.59-22.7-50.59-50.59c0-27.9,22.7-50.59,50.59-50.59
				c27.9,0,50.59,22.7,50.59,50.59C-665.17,467.55-687.87,490.25-715.77,490.25z M-715.77,400.95c-21.34,0-38.71,17.36-38.71,38.71
				c0,21.34,17.36,38.71,38.71,38.71c21.34,0,38.71-17.36,38.71-38.71C-677.06,418.31-694.42,400.95-715.77,400.95z"/>
		</g>
	</g>
</g>
<g>
	<rect x="-956.17" y="217.1" class="st0" width="25.48" height="135.81"/>
</g>
<g>
	<rect x="-1003.59" y="235.68" class="st0" width="25.48" height="117.23"/>
</g>
<g>
	<path class="st1" d="M-1025.54,355.5h-25.48c-1.43,0-2.59-1.16-2.59-2.59v-83.63c0-1.43,1.16-2.59,2.59-2.59h25.48
		c1.43,0,2.59,1.16,2.59,2.59v83.63C-1022.95,354.34-1024.11,355.5-1025.54,355.5z M-1048.43,350.33h20.3v-78.46h-20.3V350.33z"/>
</g>
<g>
	<path class="st1" d="M-978.11,355.5h-25.47c-1.43,0-2.59-1.16-2.59-2.59V235.68c0-1.43,1.16-2.59,2.59-2.59h25.47
		c1.43,0,2.59,1.16,2.59,2.59v117.23C-975.53,354.34-976.69,355.5-978.11,355.5z M-1001,350.33h20.3V238.27h-20.3V350.33z"/>
</g>
<g>
	<path class="st1" d="M-930.69,355.5h-25.47c-1.43,0-2.59-1.16-2.59-2.59V217.1c0-1.43,1.16-2.59,2.59-2.59h25.47
		c1.43,0,2.59,1.16,2.59,2.59v135.81C-928.11,354.34-929.26,355.5-930.69,355.5z M-953.58,350.33h20.3V219.69h-20.3V350.33z"/>
</g>
<g>
	<g>
		<g>
			<polygon class="st1" points="-959.65,193.2 -952.9,199.95 -949.99,190.29 -947.08,180.63 -956.74,183.54 -966.4,186.45 			"/>
		</g>
		<g>
			<path class="st1" d="M-952.9,201.71c-0.46,0-0.91-0.18-1.25-0.52l-13.5-13.5c-0.44-0.44-0.62-1.08-0.46-1.68
				c0.15-0.6,0.61-1.08,1.2-1.26l19.32-5.82c0.62-0.19,1.3-0.02,1.76,0.44c0.46,0.46,0.63,1.14,0.44,1.76l-5.82,19.32
				c-0.18,0.59-0.66,1.05-1.26,1.2C-952.61,201.69-952.75,201.71-952.9,201.71z M-963.06,187.29l4.66,4.66l0,0l4.66,4.66l4.02-13.34
				L-963.06,187.29z"/>
		</g>
	</g>
	<g>
		<path class="st1" d="M-1054.93,244.02c-0.55,0-1.1-0.26-1.44-0.75c-0.56-0.8-0.38-1.9,0.42-2.46l32.4-22.96
			c0.3-0.21,0.66-0.33,1.02-0.33h31.75l29.99-25.67c0.74-0.63,1.86-0.55,2.49,0.19c0.63,0.74,0.55,1.86-0.19,2.49l-30.48,26.09
			c-0.32,0.27-0.73,0.42-1.15,0.42h-31.84l-31.94,22.64C-1054.22,243.91-1054.58,244.02-1054.93,244.02z"/>
	</g>
</g>
<g>
	<g>
		<path class="st0" d="M-958.71,409.44l-15.54-10.89v14.71h-77.92l0,0c-7.8,0-14.12,6.32-14.12,14.12v0v27.78l0,0l10.2-20.05
			c2.41-4.74,7.27-7.72,12.59-7.72h69.25v14.71l15.54-10.89l15.54-10.89L-958.71,409.44z"/>
	</g>
	<g>
		<path class="st0" d="M-1050.74,571.06l15.54,10.89v-14.71h77.92h0c7.8,0,14.12-6.32,14.12-14.12l0,0v-27.78l0,0l-10.2,20.05
			c-2.41,4.74-7.27,7.72-12.59,7.72h-69.25V538.4l-15.54,10.89l-15.54,10.89L-1050.74,571.06z"/>
	</g>
	<g>
		<g>
			<path class="st1" d="M-1003.35,461.38c1.57,0,2.82,1.24,2.82,2.82v1.44c3.87,0.46,7.14,1.7,10.16,3.6
				c1.05,0.59,1.97,1.57,1.97,3.15c0,2.03-1.64,3.6-3.67,3.6c-0.66,0-1.31-0.2-1.97-0.59c-2.29-1.38-4.52-2.36-6.75-2.88v12.58
				c9.96,2.49,14.22,6.49,14.22,13.5c0,7.21-5.64,11.99-13.96,12.78v3.93c0,1.57-1.25,2.82-2.82,2.82c-1.57,0-2.88-1.25-2.88-2.82
				v-4.06c-4.92-0.52-9.44-2.29-13.43-5.11c-1.11-0.72-1.77-1.77-1.77-3.15c0-2.03,1.57-3.6,3.6-3.6c0.79,0,1.57,0.26,2.16,0.72
				c3.08,2.23,6.09,3.74,9.7,4.39v-12.91c-9.57-2.49-14.02-6.09-14.02-13.5c0-7.01,5.57-11.86,13.76-12.52v-1.38
				C-1006.23,462.62-1004.92,461.38-1003.35,461.38z M-1005.97,483.73v-11.6c-4.19,0.39-6.29,2.62-6.29,5.5
				C-1012.26,480.38-1011.02,482.09-1005.97,483.73z M-1000.79,492.84v11.93c4.19-0.46,6.49-2.56,6.49-5.7
				C-994.31,496.18-995.75,494.41-1000.79,492.84z"/>
		</g>
		<g>
			<path class="st1" d="M-1004.73,538.27c-26.48,0-48.02-21.54-48.02-48.02c0-26.48,21.54-48.02,48.02-48.02
				c26.48,0,48.02,21.54,48.02,48.02C-956.7,516.73-978.25,538.27-1004.73,538.27z M-1004.73,447.2
				c-23.74,0-43.05,19.31-43.05,43.05c0,23.74,19.31,43.05,43.05,43.05c23.74,0,43.05-19.31,43.05-43.05
				C-961.68,466.51-980.99,447.2-1004.73,447.2z"/>
		</g>
	</g>
	<g>
		<path class="st1" d="M-1066.29,457.65c-0.19,0-0.39-0.02-0.58-0.07c-1.12-0.27-1.91-1.27-1.91-2.42v-27.78
			c0-9.16,7.45-16.61,16.61-16.61h75.43v-12.23c0-0.93,0.52-1.78,1.34-2.21c0.82-0.43,1.82-0.36,2.58,0.17l15.54,10.89v0
			l15.54,10.89c0.66,0.47,1.06,1.23,1.06,2.04c0,0.81-0.4,1.57-1.06,2.04l-31.09,21.78c-0.76,0.53-1.75,0.6-2.58,0.17
			c-0.82-0.43-1.34-1.28-1.34-2.21v-12.23h-66.76c-4.4,0-8.38,2.44-10.37,6.36l-10.2,20.05
			C-1064.5,457.14-1065.37,457.65-1066.29,457.65z M-1052.17,415.75c-6.41,0-11.63,5.22-11.63,11.63v17.39l5.49-10.8
			c2.85-5.6,8.52-9.08,14.81-9.08h69.25c1.37,0,2.49,1.11,2.49,2.49v9.93l24.26-16.99l-12.63-8.85c0,0,0,0,0,0l-11.63-8.14v9.93
			c0,1.37-1.11,2.49-2.49,2.49H-1052.17z"/>
	</g>
	<g>
		<path class="st1" d="M-1035.2,584.43c-0.5,0-1-0.15-1.43-0.45l-15.54-10.89v0l-15.54-10.89c-0.66-0.47-1.06-1.23-1.06-2.04
			c0-0.81,0.4-1.57,1.06-2.04l31.09-21.78c0.76-0.53,1.75-0.6,2.58-0.17c0.82,0.43,1.34,1.28,1.34,2.21v12.23h66.76
			c4.4,0,8.38-2.44,10.37-6.36l10.2-20.05c0.52-1.03,1.68-1.56,2.8-1.29c1.12,0.27,1.91,1.27,1.91,2.42v27.78
			c0,9.16-7.45,16.61-16.61,16.61h-75.43v12.23c0,0.93-0.52,1.78-1.34,2.21C-1034.41,584.34-1034.81,584.43-1035.2,584.43z
			 M-1061.95,560.17l12.63,8.85c0,0,0,0,0,0l11.63,8.14v-9.93c0-1.37,1.11-2.49,2.49-2.49h77.92c6.41,0,11.63-5.22,11.63-11.63
			v-17.39l-5.49,10.8c-2.85,5.6-8.52,9.08-14.81,9.08h-69.25c-1.37,0-2.49-1.11-2.49-2.49v-9.93L-1061.95,560.17z"/>
	</g>
</g>
<g>
	<path class="st1" d="M-659.47,297.15h-136.66c-8.55,0-15.51-6.96-15.51-15.51v-78.37c0-8.55,6.96-15.51,15.51-15.51h136.66
		c8.55,0,15.51,6.96,15.51,15.51v78.37C-643.96,290.2-650.92,297.15-659.47,297.15z M-796.14,193.95c-5.14,0-9.32,4.18-9.32,9.32
		v78.37c0,5.14,4.18,9.32,9.32,9.32h136.66c5.14,0,9.32-4.18,9.32-9.32v-78.37c0-5.14-4.18-9.32-9.32-9.32H-796.14z"/>
</g>
<g>
	<path class="st0" d="M-684.89,312.64h-122.98c-10.64,0-19.26-8.62-19.26-19.26v-64.69c0-10.64,8.62-19.26,19.26-19.26h122.98
		c10.64,0,19.26,8.62,19.26,19.26v64.69C-665.63,304.01-674.25,312.64-684.89,312.64z"/>
</g>
<g>
	<path class="st1" d="M-678.05,315.73h-136.66c-8.55,0-15.51-6.96-15.51-15.51v-78.37c0-8.55,6.96-15.51,15.51-15.51h136.66
		c8.55,0,15.51,6.96,15.51,15.51v78.37C-662.54,308.77-669.49,315.73-678.05,315.73z M-814.71,212.52c-5.14,0-9.32,4.18-9.32,9.32
		v78.37c0,5.14,4.18,9.32,9.32,9.32h136.66c5.14,0,9.32-4.18,9.32-9.32v-78.37c0-5.14-4.18-9.32-9.32-9.32H-814.71z"/>
</g>
<g>
	<path class="st1" d="M-775.42,300.01H-810c-1.71,0-3.09-1.39-3.09-3.09s1.39-3.09,3.09-3.09h34.58c1.71,0,3.09,1.39,3.09,3.09
		S-773.71,300.01-775.42,300.01z"/>
</g>
<g>
	<path class="st1" d="M-687.29,300.01h-16.89c-4.45,0-8.07-3.62-8.07-8.07v-8.17c0-4.45,3.62-8.07,8.07-8.07h16.89
		c4.45,0,8.07,3.62,8.07,8.07v8.17C-679.22,296.39-682.84,300.01-687.29,300.01z M-704.18,281.89c-1.04,0-1.88,0.84-1.88,1.88v8.17
		c0,1.04,0.84,1.88,1.88,1.88h16.89c1.04,0,1.88-0.84,1.88-1.88v-8.17c0-1.04-0.84-1.88-1.88-1.88H-704.18z"/>
</g>
<g>
	<path class="st2" d="M-873.95-254.68c-0.37-0.37-0.56-0.89-0.56-1.54v-20.56c0-0.68,0.2-1.22,0.61-1.63
		c0.41-0.41,0.95-0.61,1.63-0.61c0.7,0,1.26,0.2,1.67,0.61c0.41,0.41,0.61,0.95,0.61,1.63v18.95h9.86c1.4,0,2.1,0.62,2.1,1.86
		c0,1.24-0.7,1.86-2.1,1.86h-12.24C-873.05-254.12-873.57-254.31-873.95-254.68z"/>
	<path class="st2" d="M-852.32-254.93c-1.32-0.72-2.34-1.77-3.07-3.12c-0.72-1.36-1.09-2.93-1.09-4.74c0-1.8,0.36-3.37,1.09-4.72
		c0.72-1.34,1.75-2.38,3.07-3.1c1.32-0.72,2.86-1.09,4.61-1.09c1.75,0,3.29,0.36,4.61,1.09c1.32,0.73,2.34,1.76,3.05,3.1
		c0.71,1.35,1.07,2.92,1.07,4.72c0,1.8-0.36,3.38-1.07,4.74c-0.71,1.36-1.73,2.4-3.05,3.12c-1.32,0.73-2.86,1.09-4.61,1.09
		C-849.46-253.84-851-254.21-852.32-254.93z M-844.48-258.65c0.75-0.93,1.12-2.32,1.12-4.14c0-1.8-0.37-3.17-1.12-4.12
		c-0.75-0.95-1.82-1.42-3.23-1.42c-1.4,0-2.49,0.47-3.25,1.42c-0.76,0.95-1.14,2.32-1.14,4.12c0,1.82,0.37,3.2,1.12,4.14
		c0.75,0.94,1.82,1.4,3.23,1.4C-846.31-257.25-845.22-257.71-844.48-258.65z"/>
	<path class="st2" d="M-822.6-269.93c1.16,1.18,1.74,2.98,1.74,5.39v8.56c0,0.63-0.19,1.13-0.56,1.49
		c-0.37,0.36-0.89,0.54-1.54,0.54c-0.61,0-1.11-0.19-1.49-0.56c-0.39-0.37-0.58-0.87-0.58-1.47v-0.77c-0.4,0.91-1.02,1.63-1.88,2.14
		c-0.85,0.51-1.84,0.77-2.96,0.77c-1.15,0-2.19-0.23-3.12-0.7c-0.94-0.47-1.67-1.11-2.21-1.93c-0.54-0.82-0.81-1.73-0.81-2.74
		c0-1.26,0.32-2.26,0.96-2.98c0.64-0.72,1.69-1.25,3.14-1.58c1.45-0.33,3.45-0.49,6-0.49h0.88v-0.81c0-1.15-0.25-1.98-0.74-2.51
		c-0.49-0.53-1.29-0.79-2.39-0.79c-0.68,0-1.37,0.1-2.07,0.3c-0.7,0.2-1.53,0.49-2.49,0.86c-0.61,0.3-1.05,0.46-1.33,0.46
		c-0.42,0-0.77-0.15-1.04-0.46c-0.27-0.3-0.4-0.7-0.4-1.19c0-0.4,0.1-0.74,0.3-1.04c0.2-0.29,0.53-0.57,1-0.82
		c0.82-0.44,1.79-0.79,2.93-1.05c1.13-0.26,2.25-0.39,3.35-0.39C-825.53-271.7-823.76-271.11-822.6-269.93z M-826.14-258.18
		c0.74-0.78,1.11-1.79,1.11-3.03v-0.74h-0.63c-1.57,0-2.78,0.07-3.65,0.21c-0.87,0.14-1.49,0.39-1.86,0.74s-0.56,0.83-0.56,1.44
		c0,0.75,0.26,1.36,0.79,1.84c0.53,0.48,1.18,0.72,1.95,0.72C-827.83-257-826.88-257.39-826.14-258.18z"/>
	<path class="st2" d="M-801.85-269.95c1.01,1.17,1.51,2.94,1.51,5.3v8.63c0,0.66-0.19,1.17-0.58,1.54c-0.39,0.37-0.92,0.56-1.6,0.56
		s-1.22-0.19-1.61-0.56c-0.4-0.37-0.6-0.89-0.6-1.54v-8.38c0-1.33-0.25-2.3-0.75-2.91c-0.5-0.61-1.29-0.91-2.37-0.91
		c-1.26,0-2.27,0.4-3.03,1.19c-0.76,0.8-1.14,1.86-1.14,3.19v7.82c0,0.66-0.2,1.17-0.6,1.54c-0.4,0.37-0.94,0.56-1.61,0.56
		s-1.21-0.19-1.6-0.56c-0.39-0.37-0.58-0.89-0.58-1.54v-13.58c0-0.61,0.2-1.1,0.6-1.47c0.4-0.37,0.94-0.56,1.61-0.56
		c0.61,0,1.11,0.18,1.49,0.54c0.39,0.36,0.58,0.84,0.58,1.42v0.95c0.58-0.96,1.37-1.7,2.35-2.21c0.98-0.51,2.09-0.77,3.33-0.77
		C-804.39-271.7-802.85-271.12-801.85-269.95z"/>
	<path class="st2" d="M-852.21-247.23c0.25,0.27,0.37,0.63,0.37,1.07v22.21c0,0.42-0.12,0.76-0.35,1.02
		c-0.23,0.26-0.56,0.39-0.98,0.39c-0.42,0-0.74-0.13-0.95-0.39c-0.21-0.26-0.32-0.6-0.32-1.02v-17.93l-7.61,14.59
		c-0.33,0.68-0.81,1.02-1.44,1.02c-0.61,0-1.09-0.34-1.44-1.02l-7.65-14.42v17.75c0,0.42-0.11,0.76-0.33,1.02
		c-0.22,0.26-0.54,0.39-0.96,0.39c-0.42,0-0.75-0.13-0.98-0.39c-0.23-0.26-0.35-0.6-0.35-1.02v-22.21c0-0.44,0.13-0.8,0.39-1.07
		c0.26-0.27,0.61-0.4,1.05-0.4c0.58,0,1.05,0.34,1.4,1.02l8.91,17.09l8.81-17.09c0.19-0.37,0.39-0.64,0.61-0.79
		c0.22-0.15,0.49-0.23,0.79-0.23C-852.8-247.63-852.46-247.5-852.21-247.23z"/>
	<path class="st2" d="M-832.72-233.49v9.54c0,0.42-0.12,0.76-0.37,1.02c-0.25,0.26-0.58,0.39-1,0.39c-0.42,0-0.76-0.13-1.02-0.39
		c-0.26-0.26-0.39-0.6-0.39-1.02v-1.68c-0.44,1.01-1.12,1.78-2.03,2.33c-0.91,0.55-1.96,0.82-3.16,0.82c-1.1,0-2.11-0.22-3.03-0.67
		c-0.92-0.44-1.65-1.06-2.19-1.86c-0.54-0.79-0.81-1.67-0.81-2.63c0-1.29,0.33-2.29,0.98-3c0.65-0.71,1.73-1.23,3.23-1.54
		c1.5-0.32,3.58-0.47,6.25-0.47h0.77v-1.16c0-1.4-0.29-2.43-0.86-3.09c-0.57-0.65-1.5-0.98-2.79-0.98c-1.59,0-3.2,0.43-4.84,1.3
		c-0.63,0.4-1.08,0.6-1.33,0.6c-0.28,0-0.51-0.11-0.7-0.32c-0.19-0.21-0.28-0.48-0.28-0.81c0-0.33,0.1-0.61,0.3-0.86
		c0.2-0.25,0.52-0.5,0.96-0.75c0.82-0.47,1.75-0.84,2.79-1.11c1.04-0.27,2.08-0.4,3.11-0.4
		C-834.86-240.23-832.72-237.99-832.72-233.49z M-836.85-226.14c0.9-0.95,1.35-2.17,1.35-3.67v-1.02h-0.63
		c-2.06,0-3.63,0.09-4.7,0.26c-1.08,0.18-1.84,0.47-2.3,0.88c-0.46,0.41-0.68,1.01-0.68,1.81c0,0.91,0.33,1.67,1,2.26
		c0.67,0.6,1.5,0.89,2.51,0.89C-838.9-224.72-837.75-225.2-836.85-226.14z"/>
	<path class="st2" d="M-817.6-238.97c0,0.37-0.1,0.67-0.32,0.89c-0.21,0.22-0.57,0.36-1.09,0.4l-1.05,0.11
		c-1.57,0.14-2.73,0.7-3.49,1.67c-0.76,0.97-1.14,2.11-1.14,3.42v8.53c0,0.47-0.13,0.82-0.39,1.05c-0.26,0.23-0.6,0.35-1.02,0.35
		c-0.42,0-0.77-0.12-1.03-0.37c-0.27-0.25-0.4-0.59-0.4-1.04v-14.81c0-0.44,0.14-0.79,0.42-1.04c0.28-0.25,0.62-0.37,1.02-0.37
		c0.37,0,0.69,0.12,0.95,0.37c0.26,0.25,0.39,0.58,0.39,1v1.96c0.49-1.03,1.19-1.81,2.09-2.35c0.9-0.54,1.94-0.85,3.1-0.95
		l0.49-0.04C-818.09-240.23-817.6-239.83-817.6-238.97z"/>
	<path class="st2" d="M-800.94-223.85c0,0.35-0.12,0.66-0.37,0.91c-0.25,0.26-0.54,0.39-0.89,0.39c-0.3,0-0.62-0.14-0.95-0.42
		l-9.16-7.89v6.91c0,0.44-0.13,0.79-0.4,1.04c-0.27,0.25-0.6,0.37-1,0.37c-0.42,0-0.77-0.12-1.03-0.37c-0.27-0.25-0.4-0.59-0.4-1.04
		v-22.28c0-0.44,0.13-0.79,0.4-1.04c0.27-0.25,0.61-0.37,1.03-0.37c0.4,0,0.73,0.12,1,0.37c0.27,0.25,0.4,0.59,0.4,1.04v14.24
		l8.39-7.68c0.28-0.28,0.6-0.42,0.95-0.42s0.65,0.13,0.91,0.39c0.26,0.26,0.39,0.56,0.39,0.91c0,0.4-0.16,0.75-0.49,1.05l-6.91,6.17
		l7.58,6.6C-801.12-224.62-800.94-224.24-800.94-223.85z"/>
	<path class="st2" d="M-784.03-226.37c0.19,0.21,0.28,0.48,0.28,0.81c0,0.58-0.41,1.12-1.23,1.61c-0.84,0.49-1.73,0.86-2.67,1.11
		c-0.94,0.25-1.85,0.37-2.74,0.37c-2.64,0-4.73-0.78-6.26-2.35c-1.53-1.57-2.3-3.73-2.3-6.49c0-1.75,0.34-3.3,1.02-4.65
		c0.68-1.34,1.63-2.39,2.86-3.14c1.23-0.75,2.63-1.12,4.19-1.12c2.22,0,3.99,0.73,5.3,2.18c1.31,1.45,1.96,3.42,1.96,5.89
		c0,0.47-0.09,0.81-0.28,1.02c-0.19,0.21-0.49,0.32-0.91,0.32h-11.3c0.21,4.02,2.12,6.03,5.72,6.03c0.91,0,1.7-0.12,2.35-0.37
		c0.65-0.25,1.36-0.58,2.1-1c0.61-0.35,1.02-0.53,1.23-0.53C-784.44-226.69-784.21-226.58-784.03-226.37z M-794.43-236.62
		c-0.9,0.94-1.43,2.26-1.6,3.96h9.93c-0.05-1.73-0.48-3.06-1.3-3.98c-0.82-0.92-1.96-1.39-3.44-1.39
		C-792.33-238.02-793.53-237.55-794.43-236.62z"/>
	<path class="st2" d="M-770.41-223.67c0,0.4-0.15,0.7-0.44,0.89c-0.29,0.2-0.73,0.27-1.32,0.23l-0.95-0.07
		c-1.87-0.14-3.25-0.7-4.14-1.68c-0.89-0.98-1.33-2.47-1.33-4.46v-8.81h-2.35c-0.4,0-0.71-0.1-0.93-0.3
		c-0.22-0.2-0.33-0.46-0.33-0.79c0-0.35,0.11-0.63,0.33-0.84c0.22-0.21,0.53-0.32,0.93-0.32h2.35v-3.96c0-0.44,0.13-0.79,0.39-1.04
		c0.26-0.25,0.61-0.37,1.05-0.37c0.42,0,0.76,0.12,1.02,0.37c0.26,0.25,0.39,0.59,0.39,1.04v3.96h3.89c0.37,0,0.67,0.11,0.89,0.32
		c0.22,0.21,0.33,0.49,0.33,0.84c0,0.33-0.11,0.59-0.33,0.79c-0.22,0.2-0.52,0.3-0.89,0.3h-3.89v8.95c0,1.29,0.26,2.22,0.79,2.79
		c0.53,0.57,1.32,0.89,2.37,0.96l0.95,0.07C-770.82-224.72-770.41-224.35-770.41-223.67z"/>
	<path class="st2" d="M-755.05-239.11c1.15,0.75,2.04,1.8,2.67,3.14c0.63,1.35,0.95,2.91,0.95,4.68c0,1.78-0.32,3.33-0.95,4.65
		c-0.63,1.32-1.52,2.35-2.65,3.07c-1.13,0.73-2.46,1.09-3.98,1.09c-1.33,0-2.5-0.29-3.49-0.88c-0.99-0.58-1.75-1.41-2.26-2.49v8.24
		c0,0.42-0.12,0.75-0.37,1c-0.25,0.25-0.59,0.37-1.03,0.37c-0.44,0-0.8-0.13-1.05-0.39c-0.26-0.26-0.39-0.59-0.39-0.98v-21.16
		c0-0.42,0.13-0.76,0.39-1.02c0.26-0.26,0.61-0.39,1.05-0.39c0.44,0,0.79,0.13,1.03,0.39c0.25,0.26,0.37,0.6,0.37,1.02v1.89
		c0.51-1.08,1.27-1.91,2.26-2.49c0.99-0.58,2.16-0.88,3.49-0.88C-757.52-240.23-756.19-239.86-755.05-239.11z M-755.71-226.51
		c0.91-1.12,1.37-2.71,1.37-4.77c0-2.06-0.46-3.67-1.37-4.82c-0.91-1.16-2.2-1.74-3.86-1.74c-1.66,0-2.94,0.56-3.84,1.68
		c-0.9,1.12-1.35,2.72-1.35,4.81s0.45,3.69,1.35,4.82c0.9,1.13,2.18,1.7,3.84,1.7C-757.91-224.83-756.63-225.39-755.71-226.51z"/>
	<path class="st2" d="M-746.79-222.92c-0.27-0.25-0.4-0.59-0.4-1.04v-22.28c0-0.44,0.13-0.79,0.4-1.04
		c0.27-0.25,0.61-0.37,1.03-0.37c0.4,0,0.73,0.12,1,0.37c0.27,0.25,0.4,0.59,0.4,1.04v22.28c0,0.44-0.13,0.79-0.4,1.04
		c-0.27,0.25-0.6,0.37-1,0.37C-746.17-222.55-746.52-222.67-746.79-222.92z"/>
	<path class="st2" d="M-725.65-233.49v9.54c0,0.42-0.12,0.76-0.37,1.02c-0.25,0.26-0.58,0.39-1,0.39c-0.42,0-0.76-0.13-1.02-0.39
		c-0.26-0.26-0.39-0.6-0.39-1.02v-1.68c-0.44,1.01-1.12,1.78-2.04,2.33c-0.91,0.55-1.96,0.82-3.16,0.82c-1.1,0-2.11-0.22-3.03-0.67
		c-0.92-0.44-1.65-1.06-2.19-1.86c-0.54-0.79-0.81-1.67-0.81-2.63c0-1.29,0.33-2.29,0.98-3c0.66-0.71,1.73-1.23,3.23-1.54
		c1.5-0.32,3.58-0.47,6.24-0.47h0.77v-1.16c0-1.4-0.29-2.43-0.86-3.09c-0.57-0.65-1.5-0.98-2.79-0.98c-1.59,0-3.2,0.43-4.84,1.3
		c-0.63,0.4-1.08,0.6-1.33,0.6c-0.28,0-0.51-0.11-0.7-0.32c-0.19-0.21-0.28-0.48-0.28-0.81c0-0.33,0.1-0.61,0.3-0.86
		s0.52-0.5,0.96-0.75c0.82-0.47,1.75-0.84,2.79-1.11c1.04-0.27,2.08-0.4,3.1-0.4C-727.79-240.23-725.65-237.99-725.65-233.49z
		 M-729.77-226.14c0.9-0.95,1.35-2.17,1.35-3.67v-1.02h-0.63c-2.06,0-3.63,0.09-4.7,0.26s-1.84,0.47-2.3,0.88
		c-0.46,0.41-0.68,1.01-0.68,1.81c0,0.91,0.33,1.67,1,2.26c0.67,0.6,1.5,0.89,2.51,0.89C-731.82-224.72-730.67-225.2-729.77-226.14z
		"/>
	<path class="st2" d="M-717.63-223.57c-1.23-0.72-2.18-1.75-2.84-3.09c-0.67-1.33-1-2.88-1-4.63c0-1.75,0.35-3.31,1.04-4.67
		c0.69-1.36,1.65-2.41,2.89-3.16c1.24-0.75,2.67-1.12,4.28-1.12c0.89,0,1.77,0.12,2.65,0.37c0.88,0.25,1.64,0.6,2.3,1.07
		c0.42,0.28,0.72,0.56,0.89,0.82c0.18,0.27,0.26,0.57,0.26,0.89c0,0.33-0.09,0.6-0.26,0.81c-0.18,0.21-0.4,0.32-0.68,0.32
		c-0.16,0-0.34-0.05-0.53-0.14c-0.19-0.09-0.35-0.19-0.47-0.28c-0.13-0.09-0.22-0.15-0.26-0.18c-0.61-0.4-1.19-0.71-1.74-0.95
		c-0.55-0.23-1.22-0.35-2.02-0.35c-1.71,0-3.03,0.58-3.98,1.74c-0.95,1.16-1.42,2.77-1.42,4.82c0,2.06,0.47,3.65,1.42,4.77
		c0.95,1.12,2.27,1.68,3.98,1.68c0.79,0,1.48-0.12,2.05-0.35c0.57-0.23,1.15-0.55,1.74-0.95c0.26-0.16,0.5-0.3,0.74-0.42
		c0.23-0.12,0.43-0.18,0.6-0.18c0.26,0,0.47,0.11,0.65,0.32c0.18,0.21,0.26,0.48,0.26,0.81c0,0.3-0.08,0.58-0.25,0.82
		c-0.16,0.25-0.47,0.52-0.91,0.82c-0.66,0.44-1.44,0.8-2.37,1.07c-0.92,0.27-1.85,0.4-2.79,0.4
		C-715-222.48-716.4-222.84-717.63-223.57z"/>
	<path class="st2" d="M-689.76-226.37c0.19,0.21,0.28,0.48,0.28,0.81c0,0.58-0.41,1.12-1.23,1.61c-0.84,0.49-1.73,0.86-2.67,1.11
		c-0.94,0.25-1.85,0.37-2.74,0.37c-2.64,0-4.73-0.78-6.26-2.35c-1.53-1.57-2.3-3.73-2.3-6.49c0-1.75,0.34-3.3,1.02-4.65
		c0.68-1.34,1.63-2.39,2.86-3.14c1.23-0.75,2.63-1.12,4.19-1.12c2.22,0,3.99,0.73,5.3,2.18c1.31,1.45,1.96,3.42,1.96,5.89
		c0,0.47-0.09,0.81-0.28,1.02s-0.49,0.32-0.91,0.32h-11.3c0.21,4.02,2.12,6.03,5.72,6.03c0.91,0,1.7-0.12,2.35-0.37
		c0.65-0.25,1.36-0.58,2.1-1c0.61-0.35,1.02-0.53,1.23-0.53C-690.17-226.69-689.95-226.58-689.76-226.37z M-700.16-236.62
		c-0.9,0.94-1.43,2.26-1.6,3.96h9.93c-0.05-1.73-0.48-3.06-1.3-3.98c-0.82-0.92-1.96-1.39-3.44-1.39
		C-698.06-238.02-699.26-237.55-700.16-236.62z"/>
	<g>
		<g>
			<g>
				<linearGradient id="SVGID_1_" gradientUnits="userSpaceOnUse" x1="-862.2663" y1="-312.8964" x2="-845.2966" y2="-312.8964">
					<stop  offset="0.0121" style="stop-color:#2B4957"/>
					<stop  offset="1" style="stop-color:#0E7884"/>
				</linearGradient>
				<path class="st3" d="M-849.83-324.4c0,0-2.43,0.28-5.47,0.64c3,0.22,1.41,3.07,1.41,3.07l0,0c-2.34,3.95-7.9,13.34-7.99,13.53
					c-0.88,1.88-0.2,4.16,1.62,5.23c1.86,1.09,4.23,0.54,5.43-1.22c0.43-0.63,8.97-15.14,8.97-15.14c1.18-2,0.44-4.6-1.64-5.67l0,0
					C-848.24-324.36-849.08-324.49-849.83-324.4z"/>
			</g>
			<g>
				<linearGradient id="SVGID_2_" gradientUnits="userSpaceOnUse" x1="-872.7391" y1="-318.3827" x2="-855.6467" y2="-318.3827">
					<stop  offset="0.0121" style="stop-color:#2B4957"/>
					<stop  offset="1" style="stop-color:#0E7884"/>
				</linearGradient>
				<path class="st4" d="M-872.71-317.28c0.25,2.11,2.06,3.66,4.13,3.63c0.14,0,4.88-0.54,9.4-1.05c1.18-2.02,2.34-3.99,3.12-5.33
					c0,0,1.57-2.84-1.42-3.08c0,0,0,0,0.01,0c-4.93,0.55-11.49,1.3-11.96,1.38C-871.52-321.37-872.97-319.43-872.71-317.28z"/>
			</g>
		</g>
		<linearGradient id="SVGID_3_" gradientUnits="userSpaceOnUse" x1="-978.9813" y1="-275.1336" x2="-920.7177" y2="-275.1336">
			<stop  offset="0.0121" style="stop-color:#2B4957"/>
			<stop  offset="1" style="stop-color:#0E7884"/>
		</linearGradient>
		<path class="st5" d="M-968.44-246.95c-1.96,2.05-5.07,2.47-7.52,1.04c-2.44-1.43-3.59-4.36-2.76-7.07l13.51-44.22
			c0.99-3.24,4.41-5.06,7.65-4.07c3.24,0.99,5.06,4.41,4.07,7.65l-6.02,19.7l28.24-29.39c1.97-2.05,5.09-2.48,7.54-1.03
			c2.45,1.45,3.57,4.39,2.73,7.1l-0.1,0.33L-968.44-246.95z"/>
		<linearGradient id="SVGID_4_" gradientUnits="userSpaceOnUse" x1="-954.5754" y1="-263.9262" x2="-866.0698" y2="-263.9262">
			<stop  offset="0.0121" style="stop-color:#2B4957"/>
			<stop  offset="1" style="stop-color:#0E7884"/>
		</linearGradient>
		<path class="st6" d="M-867.83-298.46l-76.25,77.65c-1.98,2.02-5.09,2.42-7.52,0.96c-2.43-1.45-3.54-4.38-2.7-7.08l9.92-31.66
			l24.31-36.83l-14.95,47.9l58.45-59.52c1.66-1.69,4.05-2.21,6.17-1.57c0.91,0.28,1.77,0.77,2.5,1.49
			C-865.49-304.75-865.45-300.87-867.83-298.46z"/>
		<linearGradient id="SVGID_5_" gradientUnits="userSpaceOnUse" x1="-959.059" y1="-255.5686" x2="-959.059" y2="-255.5686">
			<stop  offset="0.0121" style="stop-color:#2B4957"/>
			<stop  offset="1" style="stop-color:#0E7884"/>
		</linearGradient>
		<path class="st7" d="M-959.06-255.57"/>
	</g>
</g>
<g>
	<g>
		<g>
			<linearGradient id="SVGID_6_" gradientUnits="userSpaceOnUse" x1="-1199.5389" y1="129.485" x2="-1182.5693" y2="129.485">
				<stop  offset="0.0121" style="stop-color:#2B4957"/>
				<stop  offset="1" style="stop-color:#0E7884"/>
			</linearGradient>
			<path class="st8" d="M-1187.11,117.98c0,0-2.43,0.28-5.47,0.64c3,0.22,1.41,3.07,1.41,3.07l0,0c-2.34,3.95-7.9,13.34-7.99,13.53
				c-0.88,1.88-0.2,4.16,1.62,5.23c1.86,1.09,4.23,0.54,5.43-1.22c0.43-0.63,8.97-15.14,8.97-15.14c1.18-2,0.44-4.6-1.64-5.67l0,0
				C-1185.51,118.02-1186.36,117.9-1187.11,117.98z"/>
		</g>
		<g>
			<linearGradient id="SVGID_7_" gradientUnits="userSpaceOnUse" x1="-1210.0118" y1="123.9987" x2="-1192.9193" y2="123.9987">
				<stop  offset="0.0121" style="stop-color:#2B4957"/>
				<stop  offset="1" style="stop-color:#0E7884"/>
			</linearGradient>
			<path class="st9" d="M-1209.98,125.1c0.25,2.11,2.06,3.66,4.13,3.63c0.14,0,4.88-0.54,9.4-1.05c1.18-2.02,2.34-3.99,3.12-5.33
				c0,0,1.57-2.84-1.42-3.08c0,0,0,0,0.01,0c-4.93,0.55-11.49,1.3-11.96,1.38C-1208.79,121.02-1210.24,122.96-1209.98,125.1z"/>
		</g>
	</g>
	<linearGradient id="SVGID_8_" gradientUnits="userSpaceOnUse" x1="-1316.254" y1="167.2477" x2="-1257.9904" y2="167.2477">
		<stop  offset="0.0121" style="stop-color:#2B4957"/>
		<stop  offset="1" style="stop-color:#0E7884"/>
	</linearGradient>
	<path class="st10" d="M-1305.71,195.43c-1.96,2.05-5.07,2.47-7.52,1.04c-2.44-1.43-3.59-4.36-2.76-7.07l13.51-44.22
		c0.99-3.24,4.41-5.06,7.65-4.07c3.23,0.99,5.06,4.41,4.07,7.65l-6.02,19.7l28.24-29.39c1.97-2.05,5.09-2.48,7.54-1.03
		c2.45,1.45,3.57,4.39,2.73,7.1l-0.1,0.33L-1305.71,195.43z"/>
	<linearGradient id="SVGID_9_" gradientUnits="userSpaceOnUse" x1="-1291.8481" y1="178.4552" x2="-1203.3424" y2="178.4552">
		<stop  offset="0.0121" style="stop-color:#2B4957"/>
		<stop  offset="1" style="stop-color:#0E7884"/>
	</linearGradient>
	<path class="st11" d="M-1205.1,143.92l-76.25,77.65c-1.98,2.02-5.09,2.42-7.52,0.96c-2.43-1.45-3.54-4.38-2.7-7.08l9.92-31.66
		l24.31-36.83l-14.95,47.9l58.45-59.52c1.66-1.69,4.05-2.21,6.17-1.57c0.91,0.28,1.77,0.77,2.5,1.49
		C-1202.76,137.63-1202.73,141.51-1205.1,143.92z"/>
	<linearGradient id="SVGID_10_" gradientUnits="userSpaceOnUse" x1="-1296.3315" y1="186.8127" x2="-1296.3315" y2="186.8127">
		<stop  offset="0.0121" style="stop-color:#2B4957"/>
		<stop  offset="1" style="stop-color:#0E7884"/>
	</linearGradient>
	<path class="st12" d="M-1296.33,186.81"/>
</g>
<g>
	<path class="st13" d="M-547.65-106.4c-0.37-0.37-0.56-0.89-0.56-1.54v-20.56c0-0.68,0.2-1.22,0.61-1.63
		c0.41-0.41,0.95-0.61,1.63-0.61c0.7,0,1.26,0.2,1.67,0.61c0.41,0.41,0.61,0.95,0.61,1.63v18.95h9.86c1.4,0,2.11,0.62,2.11,1.86
		c0,1.24-0.7,1.86-2.11,1.86h-12.24C-546.75-105.83-547.28-106.02-547.65-106.4z"/>
	<path class="st13" d="M-526.02-106.64c-1.32-0.72-2.34-1.77-3.07-3.12c-0.72-1.36-1.09-2.93-1.09-4.74c0-1.8,0.36-3.37,1.09-4.72
		c0.72-1.34,1.75-2.38,3.07-3.1c1.32-0.72,2.86-1.09,4.61-1.09c1.75,0,3.29,0.36,4.61,1.09c1.32,0.73,2.34,1.76,3.05,3.1
		c0.71,1.35,1.07,2.92,1.07,4.72c0,1.8-0.36,3.38-1.07,4.74c-0.71,1.36-1.73,2.4-3.05,3.12c-1.32,0.73-2.86,1.09-4.61,1.09
		C-523.16-105.55-524.7-105.92-526.02-106.64z M-518.18-110.36c0.75-0.93,1.12-2.32,1.12-4.14c0-1.8-0.37-3.17-1.12-4.12
		c-0.75-0.95-1.82-1.42-3.23-1.42c-1.4,0-2.49,0.47-3.25,1.42c-0.76,0.95-1.14,2.32-1.14,4.12c0,1.82,0.37,3.2,1.12,4.14
		c0.75,0.94,1.82,1.4,3.23,1.4C-520.02-108.96-518.93-109.42-518.18-110.36z"/>
	<path class="st13" d="M-496.31-121.64c1.16,1.18,1.74,2.98,1.74,5.39v8.56c0,0.63-0.19,1.13-0.56,1.49
		c-0.37,0.36-0.89,0.54-1.54,0.54c-0.61,0-1.11-0.19-1.49-0.56c-0.39-0.37-0.58-0.87-0.58-1.47v-0.77c-0.4,0.91-1.02,1.63-1.88,2.14
		c-0.85,0.51-1.84,0.77-2.96,0.77c-1.15,0-2.19-0.23-3.12-0.7c-0.94-0.47-1.67-1.11-2.21-1.93c-0.54-0.82-0.81-1.73-0.81-2.74
		c0-1.26,0.32-2.26,0.96-2.98c0.64-0.72,1.69-1.25,3.14-1.58c1.45-0.33,3.45-0.49,6-0.49h0.88v-0.81c0-1.15-0.25-1.98-0.74-2.51
		s-1.29-0.79-2.39-0.79c-0.68,0-1.37,0.1-2.07,0.3c-0.7,0.2-1.53,0.49-2.49,0.86c-0.61,0.3-1.05,0.46-1.33,0.46
		c-0.42,0-0.77-0.15-1.04-0.46c-0.27-0.3-0.4-0.7-0.4-1.19c0-0.4,0.1-0.74,0.3-1.04c0.2-0.29,0.53-0.57,1-0.82
		c0.82-0.44,1.79-0.79,2.93-1.05c1.13-0.26,2.25-0.39,3.35-0.39C-499.23-123.41-497.46-122.82-496.31-121.64z M-499.85-109.89
		c0.74-0.78,1.11-1.79,1.11-3.03v-0.74h-0.63c-1.57,0-2.78,0.07-3.65,0.21c-0.87,0.14-1.49,0.39-1.86,0.74
		c-0.37,0.35-0.56,0.83-0.56,1.44c0,0.75,0.26,1.36,0.79,1.84c0.53,0.48,1.18,0.72,1.95,0.72
		C-501.54-108.71-500.59-109.1-499.85-109.89z"/>
	<path class="st13" d="M-475.55-121.66c1.01,1.17,1.51,2.94,1.51,5.3v8.63c0,0.66-0.19,1.17-0.58,1.54
		c-0.39,0.37-0.92,0.56-1.6,0.56s-1.22-0.19-1.61-0.56c-0.4-0.37-0.6-0.89-0.6-1.54v-8.38c0-1.33-0.25-2.3-0.75-2.91
		c-0.5-0.61-1.29-0.91-2.37-0.91c-1.26,0-2.27,0.4-3.03,1.19c-0.76,0.8-1.14,1.86-1.14,3.19v7.82c0,0.66-0.2,1.17-0.6,1.54
		c-0.4,0.37-0.94,0.56-1.61,0.56c-0.68,0-1.21-0.19-1.6-0.56c-0.39-0.37-0.58-0.89-0.58-1.54v-13.58c0-0.61,0.2-1.1,0.6-1.47
		c0.4-0.37,0.94-0.56,1.61-0.56c0.61,0,1.11,0.18,1.49,0.54c0.39,0.36,0.58,0.84,0.58,1.42v0.95c0.58-0.96,1.37-1.7,2.35-2.21
		c0.98-0.51,2.09-0.77,3.33-0.77C-478.09-123.41-476.56-122.83-475.55-121.66z"/>
	<path class="st13" d="M-525.92-98.94c0.25,0.27,0.37,0.63,0.37,1.07v22.21c0,0.42-0.12,0.76-0.35,1.02
		c-0.23,0.26-0.56,0.39-0.98,0.39c-0.42,0-0.74-0.13-0.95-0.39c-0.21-0.26-0.32-0.6-0.32-1.02v-17.93L-535.76-79
		c-0.33,0.68-0.81,1.02-1.44,1.02c-0.61,0-1.09-0.34-1.44-1.02l-7.65-14.42v17.75c0,0.42-0.11,0.76-0.33,1.02
		c-0.22,0.26-0.54,0.39-0.96,0.39c-0.42,0-0.75-0.13-0.98-0.39c-0.23-0.26-0.35-0.6-0.35-1.02v-22.21c0-0.44,0.13-0.8,0.39-1.07
		c0.26-0.27,0.61-0.4,1.05-0.4c0.58,0,1.05,0.34,1.4,1.02l8.91,17.09l8.81-17.09c0.19-0.37,0.39-0.64,0.61-0.79
		c0.22-0.15,0.49-0.23,0.79-0.23C-526.51-99.34-526.16-99.21-525.92-98.94z"/>
	<path class="st13" d="M-506.43-85.21v9.54c0,0.42-0.12,0.76-0.37,1.02c-0.25,0.26-0.58,0.39-1,0.39c-0.42,0-0.76-0.13-1.02-0.39
		c-0.26-0.26-0.39-0.6-0.39-1.02v-1.68c-0.44,1.01-1.12,1.78-2.03,2.33c-0.91,0.55-1.96,0.82-3.16,0.82c-1.1,0-2.11-0.22-3.03-0.67
		c-0.92-0.44-1.65-1.06-2.19-1.86c-0.54-0.79-0.81-1.67-0.81-2.63c0-1.29,0.33-2.29,0.98-3c0.65-0.71,1.73-1.23,3.23-1.54
		c1.5-0.32,3.58-0.47,6.25-0.47h0.77v-1.16c0-1.4-0.29-2.43-0.86-3.09c-0.57-0.65-1.5-0.98-2.79-0.98c-1.59,0-3.2,0.43-4.84,1.3
		c-0.63,0.4-1.08,0.6-1.33,0.6c-0.28,0-0.51-0.11-0.7-0.32c-0.19-0.21-0.28-0.48-0.28-0.81c0-0.33,0.1-0.61,0.3-0.86
		s0.52-0.5,0.96-0.75c0.82-0.47,1.75-0.84,2.79-1.11c1.04-0.27,2.08-0.4,3.11-0.4C-508.57-91.94-506.43-89.7-506.43-85.21z
		 M-510.55-77.86c0.9-0.95,1.35-2.17,1.35-3.67v-1.02h-0.63c-2.06,0-3.63,0.09-4.7,0.26s-1.84,0.47-2.3,0.88
		c-0.46,0.41-0.68,1.01-0.68,1.81c0,0.91,0.33,1.67,1,2.26c0.67,0.6,1.5,0.89,2.51,0.89C-512.6-76.43-511.45-76.91-510.55-77.86z"/>
	<path class="st13" d="M-491.31-90.68c0,0.37-0.1,0.67-0.32,0.89c-0.21,0.22-0.57,0.36-1.09,0.4l-1.05,0.11
		c-1.57,0.14-2.73,0.7-3.49,1.67c-0.76,0.97-1.14,2.11-1.14,3.42v8.53c0,0.47-0.13,0.82-0.39,1.05c-0.26,0.23-0.6,0.35-1.02,0.35
		c-0.42,0-0.77-0.12-1.03-0.37c-0.27-0.25-0.4-0.59-0.4-1.04v-14.81c0-0.44,0.14-0.79,0.42-1.04c0.28-0.25,0.62-0.37,1.02-0.37
		c0.37,0,0.69,0.12,0.95,0.37c0.26,0.25,0.39,0.58,0.39,1v1.96c0.49-1.03,1.19-1.81,2.09-2.35c0.9-0.54,1.94-0.85,3.1-0.95
		l0.49-0.04C-491.8-91.94-491.31-91.54-491.31-90.68z"/>
	<path class="st13" d="M-474.64-75.56c0,0.35-0.12,0.66-0.37,0.91c-0.25,0.26-0.54,0.39-0.89,0.39c-0.3,0-0.62-0.14-0.95-0.42
		l-9.16-7.89v6.91c0,0.44-0.13,0.79-0.4,1.04c-0.27,0.25-0.6,0.37-1,0.37c-0.42,0-0.77-0.12-1.03-0.37c-0.27-0.25-0.4-0.59-0.4-1.04
		v-22.28c0-0.44,0.13-0.79,0.4-1.04c0.27-0.25,0.61-0.37,1.03-0.37c0.4,0,0.73,0.12,1,0.37c0.27,0.25,0.4,0.59,0.4,1.04v14.24
		l8.39-7.68c0.28-0.28,0.6-0.42,0.95-0.42c0.35,0,0.65,0.13,0.91,0.39c0.26,0.26,0.39,0.56,0.39,0.91c0,0.4-0.16,0.75-0.49,1.05
		l-6.91,6.17l7.58,6.6C-474.83-76.33-474.64-75.95-474.64-75.56z"/>
	<path class="st13" d="M-457.73-78.08c0.19,0.21,0.28,0.48,0.28,0.81c0,0.58-0.41,1.12-1.23,1.61c-0.84,0.49-1.73,0.86-2.67,1.11
		c-0.94,0.25-1.85,0.37-2.74,0.37c-2.64,0-4.73-0.78-6.26-2.35c-1.53-1.57-2.3-3.73-2.3-6.49c0-1.75,0.34-3.3,1.02-4.65
		c0.68-1.34,1.63-2.39,2.86-3.14c1.23-0.75,2.63-1.12,4.19-1.12c2.22,0,3.99,0.73,5.3,2.18c1.31,1.45,1.96,3.42,1.96,5.89
		c0,0.47-0.09,0.81-0.28,1.02c-0.19,0.21-0.49,0.32-0.91,0.32h-11.3c0.21,4.02,2.12,6.03,5.72,6.03c0.91,0,1.7-0.12,2.35-0.37
		c0.65-0.25,1.36-0.58,2.11-1c0.61-0.35,1.02-0.53,1.23-0.53C-458.14-78.4-457.92-78.29-457.73-78.08z M-468.13-88.33
		c-0.9,0.94-1.43,2.26-1.6,3.96h9.93c-0.05-1.73-0.48-3.06-1.3-3.98c-0.82-0.92-1.96-1.39-3.44-1.39
		C-466.03-89.73-467.23-89.26-468.13-88.33z"/>
	<path class="st13" d="M-444.12-75.38c0,0.4-0.15,0.7-0.44,0.89c-0.29,0.2-0.73,0.27-1.32,0.23l-0.95-0.07
		c-1.87-0.14-3.25-0.7-4.14-1.68c-0.89-0.98-1.33-2.47-1.33-4.46v-8.81h-2.35c-0.4,0-0.71-0.1-0.93-0.3
		c-0.22-0.2-0.33-0.46-0.33-0.79c0-0.35,0.11-0.63,0.33-0.84c0.22-0.21,0.53-0.32,0.93-0.32h2.35v-3.96c0-0.44,0.13-0.79,0.39-1.04
		c0.26-0.25,0.61-0.37,1.05-0.37c0.42,0,0.76,0.12,1.02,0.37c0.26,0.25,0.39,0.59,0.39,1.04v3.96h3.89c0.37,0,0.67,0.11,0.89,0.32
		c0.22,0.21,0.33,0.49,0.33,0.84c0,0.33-0.11,0.59-0.33,0.79c-0.22,0.2-0.52,0.3-0.89,0.3h-3.89v8.95c0,1.29,0.26,2.22,0.79,2.79
		c0.53,0.57,1.32,0.89,2.37,0.96l0.95,0.07C-444.53-76.43-444.12-76.06-444.12-75.38z"/>
	<path class="st13" d="M-428.75-90.82c1.15,0.75,2.04,1.8,2.67,3.14c0.63,1.35,0.95,2.91,0.95,4.68c0,1.78-0.32,3.33-0.95,4.65
		c-0.63,1.32-1.52,2.35-2.65,3.07c-1.13,0.73-2.46,1.09-3.98,1.09c-1.33,0-2.5-0.29-3.49-0.88c-0.99-0.58-1.75-1.41-2.26-2.49v8.24
		c0,0.42-0.12,0.75-0.37,1c-0.25,0.25-0.59,0.37-1.03,0.37c-0.44,0-0.8-0.13-1.05-0.39c-0.26-0.26-0.39-0.59-0.39-0.98v-21.16
		c0-0.42,0.13-0.76,0.39-1.02c0.26-0.26,0.61-0.39,1.05-0.39c0.44,0,0.79,0.13,1.03,0.39c0.25,0.26,0.37,0.6,0.37,1.02v1.89
		c0.51-1.08,1.27-1.91,2.26-2.49c0.99-0.58,2.16-0.88,3.49-0.88C-431.22-91.94-429.9-91.57-428.75-90.82z M-429.42-78.22
		c0.91-1.12,1.37-2.71,1.37-4.77c0-2.06-0.46-3.67-1.37-4.82c-0.91-1.16-2.2-1.74-3.86-1.74c-1.66,0-2.94,0.56-3.84,1.68
		c-0.9,1.12-1.35,2.72-1.35,4.81s0.45,3.69,1.35,4.82c0.9,1.13,2.18,1.7,3.84,1.7C-431.62-76.54-430.33-77.1-429.42-78.22z"/>
	<path class="st13" d="M-420.49-74.63c-0.27-0.25-0.4-0.59-0.4-1.04v-22.28c0-0.44,0.13-0.79,0.4-1.04
		c0.27-0.25,0.61-0.37,1.03-0.37c0.4,0,0.73,0.12,1,0.37c0.27,0.25,0.4,0.59,0.4,1.04v22.28c0,0.44-0.13,0.79-0.4,1.04
		c-0.27,0.25-0.6,0.37-1,0.37C-419.88-74.26-420.22-74.38-420.49-74.63z"/>
	<path class="st13" d="M-399.35-85.21v9.54c0,0.42-0.12,0.76-0.37,1.02c-0.25,0.26-0.58,0.39-1,0.39c-0.42,0-0.76-0.13-1.02-0.39
		c-0.26-0.26-0.39-0.6-0.39-1.02v-1.68c-0.44,1.01-1.12,1.78-2.04,2.33c-0.91,0.55-1.96,0.82-3.16,0.82c-1.1,0-2.11-0.22-3.03-0.67
		c-0.92-0.44-1.65-1.06-2.19-1.86c-0.54-0.79-0.81-1.67-0.81-2.63c0-1.29,0.33-2.29,0.98-3c0.66-0.71,1.73-1.23,3.23-1.54
		c1.5-0.32,3.58-0.47,6.24-0.47h0.77v-1.16c0-1.4-0.29-2.43-0.86-3.09c-0.57-0.65-1.5-0.98-2.79-0.98c-1.59,0-3.2,0.43-4.84,1.3
		c-0.63,0.4-1.08,0.6-1.33,0.6c-0.28,0-0.51-0.11-0.7-0.32c-0.19-0.21-0.28-0.48-0.28-0.81c0-0.33,0.1-0.61,0.3-0.86
		c0.2-0.25,0.52-0.5,0.96-0.75c0.82-0.47,1.75-0.84,2.79-1.11c1.04-0.27,2.08-0.4,3.1-0.4C-401.49-91.94-399.35-89.7-399.35-85.21z
		 M-403.48-77.86c0.9-0.95,1.35-2.17,1.35-3.67v-1.02h-0.63c-2.06,0-3.63,0.09-4.7,0.26s-1.84,0.47-2.3,0.88
		c-0.46,0.41-0.68,1.01-0.68,1.81c0,0.91,0.33,1.67,1,2.26c0.67,0.6,1.5,0.89,2.51,0.89C-405.53-76.43-404.38-76.91-403.48-77.86z"
		/>
	<path class="st13" d="M-391.34-75.28c-1.23-0.72-2.18-1.75-2.84-3.09c-0.67-1.33-1-2.88-1-4.63s0.35-3.31,1.04-4.67
		c0.69-1.36,1.65-2.41,2.89-3.16c1.24-0.75,2.67-1.12,4.28-1.12c0.89,0,1.77,0.12,2.65,0.37c0.88,0.25,1.64,0.6,2.3,1.07
		c0.42,0.28,0.72,0.56,0.89,0.82c0.18,0.27,0.26,0.57,0.26,0.89c0,0.33-0.09,0.6-0.26,0.81c-0.18,0.21-0.4,0.32-0.68,0.32
		c-0.16,0-0.34-0.05-0.53-0.14c-0.19-0.09-0.35-0.19-0.47-0.28c-0.13-0.09-0.22-0.15-0.26-0.18c-0.61-0.4-1.19-0.71-1.74-0.95
		c-0.55-0.23-1.22-0.35-2.02-0.35c-1.71,0-3.03,0.58-3.98,1.74c-0.95,1.16-1.42,2.77-1.42,4.82c0,2.06,0.47,3.65,1.42,4.77
		c0.95,1.12,2.27,1.68,3.98,1.68c0.79,0,1.48-0.12,2.05-0.35c0.57-0.23,1.15-0.55,1.74-0.95c0.26-0.16,0.5-0.3,0.74-0.42
		c0.23-0.12,0.43-0.18,0.6-0.18c0.26,0,0.47,0.11,0.65,0.32c0.18,0.21,0.26,0.48,0.26,0.81c0,0.3-0.08,0.58-0.25,0.82
		c-0.16,0.25-0.47,0.52-0.91,0.82c-0.66,0.44-1.44,0.8-2.37,1.07c-0.92,0.27-1.85,0.4-2.79,0.4
		C-388.7-74.19-390.11-74.55-391.34-75.28z"/>
	<path class="st13" d="M-363.46-78.08c0.19,0.21,0.28,0.48,0.28,0.81c0,0.58-0.41,1.12-1.23,1.61c-0.84,0.49-1.73,0.86-2.67,1.11
		c-0.94,0.25-1.85,0.37-2.74,0.37c-2.64,0-4.73-0.78-6.26-2.35c-1.53-1.57-2.3-3.73-2.3-6.49c0-1.75,0.34-3.3,1.02-4.65
		c0.68-1.34,1.63-2.39,2.86-3.14c1.23-0.75,2.63-1.12,4.19-1.12c2.22,0,3.99,0.73,5.3,2.18c1.31,1.45,1.96,3.42,1.96,5.89
		c0,0.47-0.09,0.81-0.28,1.02c-0.19,0.21-0.49,0.32-0.91,0.32h-11.3c0.21,4.02,2.12,6.03,5.72,6.03c0.91,0,1.7-0.12,2.35-0.37
		c0.65-0.25,1.36-0.58,2.11-1c0.61-0.35,1.02-0.53,1.23-0.53C-363.87-78.4-363.65-78.29-363.46-78.08z M-373.87-88.33
		c-0.9,0.94-1.43,2.26-1.6,3.96h9.93c-0.05-1.73-0.48-3.06-1.3-3.98c-0.82-0.92-1.96-1.39-3.44-1.39
		C-371.77-89.73-372.97-89.26-373.87-88.33z"/>
	<g>
		<g>
			<g>
				<path class="st13" d="M-523.54-176.11c0,0-2.43,0.28-5.47,0.64c3,0.22,1.41,3.07,1.41,3.07l0,0c-2.34,3.95-7.9,13.34-7.99,13.53
					c-0.88,1.88-0.2,4.16,1.62,5.23c1.86,1.09,4.23,0.54,5.43-1.22c0.43-0.63,8.97-15.14,8.97-15.14c1.18-2,0.44-4.6-1.64-5.67l0,0
					C-521.94-176.07-522.79-176.2-523.54-176.11z"/>
			</g>
			<g>
				<path class="st13" d="M-546.41-168.99c0.25,2.11,2.06,3.66,4.13,3.63c0.14,0,4.88-0.54,9.4-1.05c1.18-2.02,2.34-3.99,3.12-5.33
					c0,0,1.57-2.84-1.42-3.08c0,0,0,0,0.01,0c-4.93,0.55-11.49,1.3-11.96,1.38C-545.22-173.08-546.67-171.14-546.41-168.99z"/>
			</g>
		</g>
		<path class="st13" d="M-642.14-98.66c-1.96,2.05-5.07,2.47-7.52,1.04c-2.44-1.43-3.59-4.36-2.76-7.07l13.51-44.22
			c0.99-3.24,4.41-5.06,7.65-4.07c3.24,0.99,5.06,4.41,4.07,7.65l-6.02,19.7l28.24-29.39c1.97-2.05,5.09-2.48,7.54-1.03
			c2.45,1.45,3.57,4.39,2.73,7.1l-0.1,0.33L-642.14-98.66z"/>
		<path class="st13" d="M-541.53-150.17l-76.25,77.65c-1.98,2.02-5.09,2.42-7.52,0.96c-2.43-1.45-3.54-4.38-2.7-7.08l9.92-31.66
			l24.31-36.83l-14.95,47.9l58.45-59.52c1.66-1.69,4.05-2.21,6.17-1.57c0.91,0.28,1.77,0.77,2.5,1.49
			C-539.19-156.46-539.16-152.58-541.53-150.17z"/>
		<path class="st13" d="M-632.76-107.28"/>
	</g>
</g>
<g>
	<path class="st2" d="M-446.07,76.92c-0.37-0.37-0.56-0.89-0.56-1.54V54.82c0-0.68,0.2-1.22,0.61-1.63
		c0.41-0.41,0.95-0.61,1.63-0.61c0.7,0,1.26,0.2,1.67,0.61c0.41,0.41,0.61,0.95,0.61,1.63v18.95h9.86c1.4,0,2.11,0.62,2.11,1.86
		c0,1.24-0.7,1.86-2.11,1.86h-12.24C-445.17,77.48-445.69,77.3-446.07,76.92z"/>
	<path class="st2" d="M-424.44,76.68c-1.32-0.72-2.34-1.77-3.07-3.12c-0.72-1.36-1.09-2.93-1.09-4.74c0-1.8,0.36-3.37,1.09-4.72
		c0.72-1.34,1.75-2.38,3.07-3.1c1.32-0.72,2.86-1.09,4.61-1.09s3.29,0.36,4.61,1.09c1.32,0.73,2.34,1.76,3.05,3.1
		c0.71,1.35,1.07,2.92,1.07,4.72c0,1.8-0.36,3.38-1.07,4.74c-0.71,1.36-1.73,2.4-3.05,3.12c-1.32,0.73-2.86,1.09-4.61,1.09
		S-423.12,77.4-424.44,76.68z M-416.6,72.96c0.75-0.93,1.12-2.32,1.12-4.14c0-1.8-0.37-3.17-1.12-4.12
		c-0.75-0.95-1.82-1.42-3.23-1.42c-1.4,0-2.49,0.47-3.25,1.42c-0.76,0.95-1.14,2.32-1.14,4.12c0,1.82,0.37,3.2,1.12,4.14
		c0.75,0.94,1.82,1.4,3.23,1.4C-418.43,74.36-417.35,73.89-416.6,72.96z"/>
	<path class="st2" d="M-394.72,61.68c1.16,1.18,1.74,2.98,1.74,5.39v8.56c0,0.63-0.19,1.13-0.56,1.49
		c-0.37,0.36-0.89,0.54-1.54,0.54c-0.61,0-1.11-0.19-1.49-0.56c-0.39-0.37-0.58-0.87-0.58-1.47v-0.77c-0.4,0.91-1.02,1.63-1.88,2.14
		c-0.85,0.51-1.84,0.77-2.96,0.77c-1.15,0-2.19-0.23-3.12-0.7c-0.94-0.47-1.67-1.11-2.21-1.93c-0.54-0.82-0.81-1.73-0.81-2.74
		c0-1.26,0.32-2.26,0.96-2.98c0.64-0.72,1.69-1.25,3.14-1.58c1.45-0.33,3.45-0.49,6-0.49h0.88v-0.81c0-1.15-0.25-1.98-0.74-2.51
		c-0.49-0.53-1.29-0.79-2.39-0.79c-0.68,0-1.37,0.1-2.07,0.3c-0.7,0.2-1.53,0.49-2.49,0.86c-0.61,0.3-1.05,0.46-1.33,0.46
		c-0.42,0-0.77-0.15-1.04-0.46c-0.27-0.3-0.4-0.7-0.4-1.19c0-0.4,0.1-0.74,0.3-1.04c0.2-0.29,0.53-0.57,1-0.82
		c0.82-0.44,1.79-0.79,2.93-1.05c1.13-0.26,2.25-0.39,3.35-0.39C-397.65,59.91-395.88,60.5-394.72,61.68z M-398.27,73.43
		c0.74-0.78,1.11-1.79,1.11-3.03v-0.74h-0.63c-1.57,0-2.78,0.07-3.65,0.21c-0.87,0.14-1.49,0.39-1.86,0.74
		c-0.37,0.35-0.56,0.83-0.56,1.44c0,0.75,0.26,1.36,0.79,1.84c0.53,0.48,1.18,0.72,1.95,0.72C-399.96,74.61-399,74.22-398.27,73.43z
		"/>
	<path class="st2" d="M-373.97,61.66c1.01,1.17,1.51,2.94,1.51,5.3v8.63c0,0.66-0.19,1.17-0.58,1.54c-0.39,0.37-0.92,0.56-1.6,0.56
		c-0.68,0-1.22-0.19-1.61-0.56c-0.4-0.37-0.6-0.89-0.6-1.54V67.2c0-1.33-0.25-2.3-0.75-2.91c-0.5-0.61-1.29-0.91-2.37-0.91
		c-1.26,0-2.27,0.4-3.03,1.19c-0.76,0.8-1.14,1.86-1.14,3.19v7.82c0,0.66-0.2,1.17-0.6,1.54s-0.94,0.56-1.61,0.56
		c-0.68,0-1.21-0.19-1.6-0.56c-0.39-0.37-0.58-0.89-0.58-1.54V62.01c0-0.61,0.2-1.1,0.6-1.47c0.4-0.37,0.94-0.56,1.61-0.56
		c0.61,0,1.11,0.18,1.49,0.54c0.39,0.36,0.58,0.84,0.58,1.42v0.95c0.58-0.96,1.37-1.7,2.35-2.21c0.98-0.51,2.09-0.77,3.33-0.77
		C-376.51,59.91-374.98,60.49-373.97,61.66z"/>
	<path class="st2" d="M-424.33,84.38c0.25,0.27,0.37,0.63,0.37,1.07v22.21c0,0.42-0.12,0.76-0.35,1.02
		c-0.23,0.26-0.56,0.39-0.98,0.39c-0.42,0-0.74-0.13-0.95-0.39c-0.21-0.26-0.32-0.6-0.32-1.02V89.73l-7.61,14.59
		c-0.33,0.68-0.81,1.02-1.44,1.02c-0.61,0-1.09-0.34-1.44-1.02l-7.65-14.42v17.75c0,0.42-0.11,0.76-0.33,1.02
		c-0.22,0.26-0.54,0.39-0.96,0.39c-0.42,0-0.75-0.13-0.98-0.39c-0.23-0.26-0.35-0.6-0.35-1.02V85.45c0-0.44,0.13-0.8,0.39-1.07
		c0.26-0.27,0.61-0.4,1.05-0.4c0.58,0,1.05,0.34,1.4,1.02l8.91,17.09l8.81-17.09c0.19-0.37,0.39-0.64,0.61-0.79
		c0.22-0.15,0.49-0.23,0.79-0.23C-424.93,83.97-424.58,84.11-424.33,84.38z"/>
	<path class="st2" d="M-404.85,98.11v9.54c0,0.42-0.12,0.76-0.37,1.02c-0.25,0.26-0.58,0.39-1,0.39c-0.42,0-0.76-0.13-1.02-0.39
		c-0.26-0.26-0.39-0.6-0.39-1.02v-1.68c-0.44,1.01-1.12,1.78-2.03,2.33c-0.91,0.55-1.96,0.82-3.16,0.82c-1.1,0-2.11-0.22-3.03-0.67
		c-0.92-0.44-1.65-1.06-2.19-1.86c-0.54-0.79-0.81-1.67-0.81-2.63c0-1.29,0.33-2.29,0.98-3c0.65-0.71,1.73-1.23,3.23-1.54
		c1.5-0.32,3.58-0.47,6.25-0.47h0.77V97.8c0-1.4-0.29-2.43-0.86-3.09c-0.57-0.65-1.5-0.98-2.79-0.98c-1.59,0-3.2,0.43-4.84,1.3
		c-0.63,0.4-1.08,0.6-1.33,0.6c-0.28,0-0.51-0.11-0.7-0.32c-0.19-0.21-0.28-0.48-0.28-0.81c0-0.33,0.1-0.61,0.3-0.86
		c0.2-0.25,0.52-0.5,0.96-0.75c0.82-0.47,1.75-0.84,2.79-1.11c1.04-0.27,2.08-0.4,3.11-0.4C-406.99,91.38-404.85,93.62-404.85,98.11
		z M-408.97,105.46c0.9-0.95,1.35-2.17,1.35-3.67v-1.02h-0.63c-2.06,0-3.63,0.09-4.7,0.26c-1.08,0.18-1.84,0.47-2.3,0.88
		c-0.46,0.41-0.68,1.01-0.68,1.81c0,0.91,0.33,1.67,1,2.26c0.67,0.6,1.5,0.89,2.51,0.89C-411.02,106.88-409.87,106.41-408.97,105.46
		z"/>
	<path class="st2" d="M-389.73,92.64c0,0.37-0.1,0.67-0.32,0.89c-0.21,0.22-0.57,0.36-1.09,0.4l-1.05,0.11
		c-1.57,0.14-2.73,0.7-3.49,1.67c-0.76,0.97-1.14,2.11-1.14,3.42v8.53c0,0.47-0.13,0.82-0.39,1.05c-0.26,0.23-0.6,0.35-1.02,0.35
		c-0.42,0-0.77-0.12-1.03-0.37c-0.27-0.25-0.4-0.59-0.4-1.04V92.85c0-0.44,0.14-0.79,0.42-1.04c0.28-0.25,0.62-0.37,1.02-0.37
		c0.37,0,0.69,0.12,0.95,0.37c0.26,0.25,0.39,0.58,0.39,1v1.96c0.49-1.03,1.19-1.81,2.09-2.35c0.9-0.54,1.94-0.85,3.1-0.95
		l0.49-0.04C-390.22,91.38-389.73,91.77-389.73,92.64z"/>
	<path class="st2" d="M-373.06,107.76c0,0.35-0.12,0.66-0.37,0.91c-0.25,0.26-0.54,0.39-0.89,0.39c-0.3,0-0.62-0.14-0.95-0.42
		l-9.16-7.89v6.91c0,0.44-0.13,0.79-0.4,1.04c-0.27,0.25-0.6,0.37-1,0.37c-0.42,0-0.77-0.12-1.03-0.37c-0.27-0.25-0.4-0.59-0.4-1.04
		V85.38c0-0.44,0.13-0.79,0.4-1.04c0.27-0.25,0.61-0.37,1.03-0.37c0.4,0,0.73,0.12,1,0.37c0.27,0.25,0.4,0.59,0.4,1.04v14.24
		l8.39-7.68c0.28-0.28,0.6-0.42,0.95-0.42c0.35,0,0.65,0.13,0.91,0.39c0.26,0.26,0.39,0.56,0.39,0.91c0,0.4-0.16,0.75-0.49,1.05
		l-6.91,6.17l7.58,6.6C-373.25,106.99-373.06,107.36-373.06,107.76z"/>
	<path class="st2" d="M-356.15,105.23c0.19,0.21,0.28,0.48,0.28,0.81c0,0.58-0.41,1.12-1.23,1.61c-0.84,0.49-1.73,0.86-2.67,1.11
		c-0.94,0.25-1.85,0.37-2.74,0.37c-2.64,0-4.73-0.78-6.26-2.35c-1.53-1.57-2.3-3.73-2.3-6.49c0-1.75,0.34-3.3,1.02-4.65
		c0.68-1.34,1.63-2.39,2.86-3.14c1.23-0.75,2.63-1.12,4.19-1.12c2.22,0,3.99,0.73,5.3,2.18c1.31,1.45,1.96,3.42,1.96,5.89
		c0,0.47-0.09,0.81-0.28,1.02c-0.19,0.21-0.49,0.32-0.91,0.32h-11.3c0.21,4.02,2.12,6.03,5.72,6.03c0.91,0,1.7-0.12,2.35-0.37
		c0.65-0.25,1.36-0.58,2.11-1c0.61-0.35,1.02-0.53,1.23-0.53C-356.56,104.92-356.34,105.02-356.15,105.23z M-366.55,94.99
		c-0.9,0.94-1.43,2.26-1.6,3.96h9.93c-0.05-1.73-0.48-3.06-1.3-3.98c-0.82-0.92-1.96-1.39-3.44-1.39
		C-364.45,93.59-365.65,94.05-366.55,94.99z"/>
	<path class="st2" d="M-342.54,107.94c0,0.4-0.15,0.7-0.44,0.89c-0.29,0.2-0.73,0.27-1.32,0.23l-0.95-0.07
		c-1.87-0.14-3.25-0.7-4.14-1.68c-0.89-0.98-1.33-2.47-1.33-4.46v-8.81h-2.35c-0.4,0-0.71-0.1-0.93-0.3
		c-0.22-0.2-0.33-0.46-0.33-0.79c0-0.35,0.11-0.63,0.33-0.84c0.22-0.21,0.53-0.32,0.93-0.32h2.35v-3.96c0-0.44,0.13-0.79,0.39-1.04
		c0.26-0.25,0.61-0.37,1.05-0.37c0.42,0,0.76,0.12,1.02,0.37c0.26,0.25,0.39,0.59,0.39,1.04v3.96h3.89c0.37,0,0.67,0.11,0.89,0.32
		c0.22,0.21,0.33,0.49,0.33,0.84c0,0.33-0.11,0.59-0.33,0.79c-0.22,0.2-0.52,0.3-0.89,0.3h-3.89v8.95c0,1.29,0.26,2.22,0.79,2.79
		c0.53,0.57,1.32,0.89,2.37,0.96l0.95,0.07C-342.95,106.88-342.54,107.26-342.54,107.94z"/>
	<path class="st2" d="M-327.17,92.5c1.15,0.75,2.04,1.8,2.67,3.14c0.63,1.35,0.95,2.91,0.95,4.68c0,1.78-0.32,3.33-0.95,4.65
		c-0.63,1.32-1.52,2.35-2.65,3.07c-1.13,0.73-2.46,1.09-3.98,1.09c-1.33,0-2.5-0.29-3.49-0.88c-0.99-0.58-1.75-1.41-2.26-2.49v8.24
		c0,0.42-0.12,0.75-0.37,1c-0.25,0.25-0.59,0.37-1.03,0.37c-0.44,0-0.8-0.13-1.05-0.39c-0.26-0.26-0.39-0.59-0.39-0.98V92.85
		c0-0.42,0.13-0.76,0.39-1.02c0.26-0.26,0.61-0.39,1.05-0.39c0.44,0,0.79,0.13,1.03,0.39c0.25,0.26,0.37,0.6,0.37,1.02v1.89
		c0.51-1.08,1.27-1.91,2.26-2.49c0.99-0.58,2.16-0.88,3.49-0.88C-329.64,91.38-328.32,91.75-327.17,92.5z M-327.84,105.09
		c0.91-1.12,1.37-2.71,1.37-4.77c0-2.06-0.46-3.67-1.37-4.82c-0.91-1.16-2.2-1.74-3.86-1.74c-1.66,0-2.94,0.56-3.84,1.68
		c-0.9,1.12-1.35,2.72-1.35,4.81s0.45,3.69,1.35,4.82c0.9,1.13,2.18,1.7,3.84,1.7C-330.04,106.78-328.75,106.22-327.84,105.09z"/>
	<path class="st2" d="M-318.91,108.69c-0.27-0.25-0.4-0.59-0.4-1.04V85.38c0-0.44,0.13-0.79,0.4-1.04c0.27-0.25,0.61-0.37,1.03-0.37
		c0.4,0,0.73,0.12,1,0.37c0.27,0.25,0.4,0.59,0.4,1.04v22.28c0,0.44-0.13,0.79-0.4,1.04c-0.27,0.25-0.6,0.37-1,0.37
		C-318.3,109.06-318.64,108.94-318.91,108.69z"/>
	<path class="st2" d="M-297.77,98.11v9.54c0,0.42-0.12,0.76-0.37,1.02c-0.25,0.26-0.58,0.39-1,0.39c-0.42,0-0.76-0.13-1.02-0.39
		c-0.26-0.26-0.39-0.6-0.39-1.02v-1.68c-0.44,1.01-1.12,1.78-2.04,2.33c-0.91,0.55-1.96,0.82-3.16,0.82c-1.1,0-2.11-0.22-3.03-0.67
		s-1.65-1.06-2.19-1.86c-0.54-0.79-0.81-1.67-0.81-2.63c0-1.29,0.33-2.29,0.98-3c0.66-0.71,1.73-1.23,3.23-1.54
		c1.5-0.32,3.58-0.47,6.24-0.47h0.77V97.8c0-1.4-0.29-2.43-0.86-3.09c-0.57-0.65-1.5-0.98-2.79-0.98c-1.59,0-3.2,0.43-4.84,1.3
		c-0.63,0.4-1.08,0.6-1.33,0.6c-0.28,0-0.51-0.11-0.7-0.32c-0.19-0.21-0.28-0.48-0.28-0.81c0-0.33,0.1-0.61,0.3-0.86
		c0.2-0.25,0.52-0.5,0.96-0.75c0.82-0.47,1.75-0.84,2.79-1.11c1.04-0.27,2.08-0.4,3.1-0.4C-299.91,91.38-297.77,93.62-297.77,98.11z
		 M-301.89,105.46c0.9-0.95,1.35-2.17,1.35-3.67v-1.02h-0.63c-2.06,0-3.63,0.09-4.7,0.26c-1.08,0.18-1.84,0.47-2.3,0.88
		c-0.46,0.41-0.68,1.01-0.68,1.81c0,0.91,0.33,1.67,1,2.26c0.67,0.6,1.5,0.89,2.51,0.89C-303.95,106.88-302.8,106.41-301.89,105.46z
		"/>
	<path class="st2" d="M-289.76,108.04c-1.23-0.72-2.18-1.75-2.84-3.09c-0.67-1.33-1-2.88-1-4.63s0.35-3.31,1.04-4.67
		c0.69-1.36,1.65-2.41,2.89-3.16c1.24-0.75,2.67-1.12,4.28-1.12c0.89,0,1.77,0.12,2.65,0.37c0.88,0.25,1.64,0.6,2.3,1.07
		c0.42,0.28,0.72,0.56,0.89,0.82c0.18,0.27,0.26,0.57,0.26,0.89c0,0.33-0.09,0.6-0.26,0.81c-0.18,0.21-0.4,0.32-0.68,0.32
		c-0.16,0-0.34-0.05-0.53-0.14c-0.19-0.09-0.35-0.19-0.47-0.28c-0.13-0.09-0.22-0.15-0.26-0.18c-0.61-0.4-1.19-0.71-1.74-0.95
		c-0.55-0.23-1.22-0.35-2.02-0.35c-1.71,0-3.03,0.58-3.98,1.74c-0.95,1.16-1.42,2.77-1.42,4.82c0,2.06,0.47,3.65,1.42,4.77
		c0.95,1.12,2.27,1.68,3.98,1.68c0.79,0,1.48-0.12,2.05-0.35c0.57-0.23,1.15-0.55,1.74-0.95c0.26-0.16,0.5-0.3,0.74-0.42
		c0.23-0.12,0.43-0.18,0.6-0.18c0.26,0,0.47,0.11,0.65,0.32s0.26,0.48,0.26,0.81c0,0.3-0.08,0.58-0.25,0.82
		c-0.16,0.25-0.47,0.52-0.91,0.82c-0.66,0.44-1.44,0.8-2.37,1.07c-0.92,0.27-1.85,0.4-2.79,0.4
		C-287.12,109.13-288.53,108.77-289.76,108.04z"/>
	<path class="st2" d="M-261.88,105.23c0.19,0.21,0.28,0.48,0.28,0.81c0,0.58-0.41,1.12-1.23,1.61c-0.84,0.49-1.73,0.86-2.67,1.11
		c-0.94,0.25-1.85,0.37-2.74,0.37c-2.64,0-4.73-0.78-6.26-2.35c-1.53-1.57-2.3-3.73-2.3-6.49c0-1.75,0.34-3.3,1.02-4.65
		c0.68-1.34,1.63-2.39,2.86-3.14c1.23-0.75,2.63-1.12,4.19-1.12c2.22,0,3.99,0.73,5.3,2.18c1.31,1.45,1.96,3.42,1.96,5.89
		c0,0.47-0.09,0.81-0.28,1.02s-0.49,0.32-0.91,0.32h-11.3c0.21,4.02,2.12,6.03,5.72,6.03c0.91,0,1.7-0.12,2.35-0.37
		c0.65-0.25,1.36-0.58,2.11-1c0.61-0.35,1.02-0.53,1.23-0.53C-262.29,104.92-262.07,105.02-261.88,105.23z M-272.28,94.99
		c-0.9,0.94-1.43,2.26-1.6,3.96h9.93c-0.05-1.73-0.48-3.06-1.3-3.98c-0.82-0.92-1.96-1.39-3.44-1.39
		C-270.19,93.59-271.38,94.05-272.28,94.99z"/>
	<g>
		<g>
			<g>
				<path class="st2" d="M-421.96,7.21c0,0-2.43,0.28-5.47,0.64c3,0.22,1.41,3.07,1.41,3.07l0,0c-2.34,3.95-7.9,13.34-7.99,13.53
					c-0.88,1.88-0.2,4.16,1.62,5.23c1.86,1.09,4.23,0.54,5.43-1.22c0.43-0.63,8.97-15.14,8.97-15.14c1.18-2,0.44-4.6-1.64-5.67l0,0
					C-420.36,7.25-421.21,7.12-421.96,7.21z"/>
			</g>
			<g>
				<path class="st2" d="M-444.83,14.33c0.25,2.11,2.06,3.66,4.13,3.63c0.14,0,4.88-0.54,9.4-1.05c1.18-2.02,2.34-3.99,3.12-5.33
					c0,0,1.57-2.84-1.42-3.08c0,0,0,0,0.01,0c-4.93,0.55-11.49,1.3-11.96,1.38C-443.64,10.24-445.09,12.18-444.83,14.33z"/>
			</g>
		</g>
		<path class="st2" d="M-540.56,84.66c-1.96,2.05-5.07,2.47-7.52,1.04c-2.44-1.43-3.59-4.36-2.76-7.07l13.51-44.22
			c0.99-3.24,4.41-5.06,7.65-4.07c3.24,0.99,5.06,4.41,4.07,7.65l-6.02,19.7l28.24-29.39c1.97-2.05,5.09-2.48,7.54-1.03
			c2.45,1.45,3.57,4.39,2.73,7.1l-0.1,0.33L-540.56,84.66z"/>
		<path class="st2" d="M-439.95,33.15l-76.25,77.65c-1.98,2.02-5.09,2.42-7.52,0.96c-2.43-1.45-3.54-4.38-2.7-7.08l9.92-31.66
			l24.31-36.83l-14.95,47.9l58.45-59.52c1.66-1.69,4.05-2.21,6.17-1.57c0.91,0.28,1.77,0.77,2.5,1.49
			C-437.61,26.86-437.58,30.73-439.95,33.15z"/>
		<path class="st2" d="M-531.18,76.04"/>
	</g>
</g>
<rect x="-258.79" y="-161.04" class="st2" width="78" height="78"/>
<rect x="-166.15" y="-161.04" class="st1" width="78" height="78"/>
<rect x="-76.54" y="-161.04" class="st14" width="78" height="78"/>
<rect x="18.74" y="-161.04" class="st15" width="78" height="78"/>
<rect x="111.38" y="-161.04" class="st16" width="78" height="78"/>
<rect x="200" y="-161.04" class="st0" width="78" height="78"/>
</svg>
